<svg width="777" height="440" viewBox="0 0 777 440" fill="none" xmlns="http://www.w3.org/2000/svg">
<path d="M413.609 116.36C414.819 115.18 415.429 113.38 415.429 110.96C415.429 108.54 414.749 106.74 413.389 105.56C412.029 104.38 410.279 103.79 408.129 103.79V103.39C409.659 103.39 410.949 102.9 411.979 101.91C413.009 100.92 413.539 99.3999 413.569 97.3299C413.539 93.1699 411.649 91.0898 407.899 91.0898H406.609V118.13H408.739C410.779 118.13 412.399 117.54 413.609 116.36Z" fill="#26326B"/>
<path d="M378.648 116.36C379.858 115.18 380.468 113.38 380.468 110.96C380.468 108.54 379.788 106.74 378.428 105.56C377.078 104.38 375.318 103.79 373.168 103.79V103.39C374.698 103.39 375.988 102.9 377.018 101.91C378.048 100.92 378.578 99.3999 378.608 97.3299C378.578 93.1699 376.688 91.0898 372.938 91.0898H371.658V118.13H373.778C375.818 118.13 377.438 117.54 378.648 116.36Z" fill="#26326B"/>
<path d="M483.309 51.6494L477.249 56.6194C477.159 56.6994 467.429 64.5794 451.919 68.4294C431.279 73.5494 410.619 69.4994 390.499 56.3794L388.479 55.0594L386.449 56.3794C366.329 69.4994 345.669 73.5494 325.029 68.4294C309.519 64.5794 299.789 56.6994 299.699 56.6294L293.629 51.6094V177.419C293.629 184.319 294.509 190.779 296.259 196.619C304.999 225.879 330.249 238.199 355.359 248.309C379.759 258.119 384.059 268.399 384.679 270.359C385.209 272.029 386.729 273.149 388.489 273.149C390.249 273.149 391.759 272.029 392.279 270.359C392.899 268.399 397.199 258.119 421.589 248.309C446.699 238.199 471.959 225.889 480.709 196.619C482.449 190.769 483.319 184.319 483.319 177.419V51.6594L483.309 51.6494ZM475.899 177.419C475.899 183.599 475.119 189.349 473.599 194.499C466.559 218.049 447.419 229.919 418.809 241.429C401.049 248.589 392.539 256.289 388.479 261.909C384.409 256.289 375.909 248.579 358.129 241.429C329.529 229.919 310.399 218.049 303.359 194.499C301.819 189.349 301.039 183.599 301.039 177.419V66.4894C305.839 69.3794 313.329 73.1194 322.879 75.5394C338.199 79.4094 361.849 80.4394 388.469 63.8894C415.079 80.4394 438.739 79.4194 454.049 75.5394C463.599 73.1194 471.089 69.3794 475.889 66.4894V177.419H475.899Z" fill="#26326B"/>
<path d="M389.089 69.2975L388.469 68.9375L387.849 69.2975C373.059 77.8975 357.669 82.2475 342.089 82.2475C335.279 82.2475 328.459 81.3975 321.829 79.7275C316.819 78.4575 311.859 76.7175 307.119 74.5475L305.369 73.7475V177.408C305.369 183.158 306.089 188.487 307.509 193.247C314.049 215.137 332.349 226.378 359.749 237.408C371.869 242.288 381.239 247.958 387.619 254.288L388.489 255.158L389.359 254.288C395.739 247.958 405.099 242.278 417.209 237.408C444.619 226.368 462.919 215.148 469.459 193.258C470.879 188.508 471.599 183.178 471.599 177.408V73.7475L469.849 74.5475C465.119 76.7075 460.169 78.4575 455.139 79.7175C448.519 81.3875 441.709 82.2475 434.879 82.2475C419.299 82.2475 403.909 77.8875 389.119 69.2975H389.089ZM456.219 91.6075C455.569 91.2275 454.789 91.0175 453.869 90.9875H447.939V116.967C447.959 117.737 448.259 118.388 448.799 118.918C449.339 119.448 449.999 119.717 450.769 119.717H451.299L451.339 120.158H437.889V119.717H438.459C439.199 119.717 439.839 119.448 440.379 118.918C440.929 118.388 441.229 117.748 441.289 117.018V90.9975H435.309C433.959 91.0275 432.879 91.4575 432.079 92.2775C431.279 93.1075 430.879 94.1775 430.879 95.5075V96.0375H430.439V88.3375C431.639 88.8375 433.389 89.1075 435.659 89.1375H453.489C454.399 89.1375 455.399 89.0475 456.469 88.8675C457.549 88.6875 458.289 88.5175 458.709 88.3375V96.0375H458.269V95.5075C458.269 93.6775 457.579 92.3775 456.189 91.6175L456.219 91.6075ZM399.109 90.4175C398.569 89.8875 397.909 89.6175 397.149 89.6175H396.579V89.1775H409.409C412.829 89.1775 415.549 89.7975 417.569 91.0375C419.589 92.2775 420.619 94.1775 420.649 96.7475C420.619 98.0475 420.339 99.1775 419.809 100.147C418.829 101.977 417.299 103.028 415.209 103.298C417.479 103.498 419.359 104.358 420.829 105.848C422.309 107.338 423.039 109.227 423.039 111.527C423.039 114.297 421.929 116.437 419.699 117.927C417.469 119.417 414.419 120.158 410.559 120.158H396.579V119.717H397.149C398.209 119.717 399.019 119.258 399.579 118.348C399.809 117.938 399.939 117.478 399.979 116.978V92.3675C399.949 91.5975 399.659 90.9475 399.109 90.4175ZM364.159 90.4175C363.609 89.8875 362.959 89.6175 362.189 89.6175H361.619V89.1775H374.449C377.869 89.1775 380.589 89.7975 382.609 91.0375C384.629 92.2775 385.659 94.1775 385.689 96.7475C385.659 98.0475 385.379 99.1775 384.849 100.147C383.869 101.977 382.339 103.028 380.249 103.298C382.519 103.498 384.399 104.358 385.869 105.848C387.349 107.338 388.089 109.227 388.089 111.527C388.089 114.297 386.969 116.437 384.749 117.927C382.519 119.417 379.469 120.158 375.609 120.158H361.629V119.717H362.199C363.259 119.717 364.069 119.258 364.629 118.348C364.859 117.938 364.989 117.478 365.029 116.978V92.3675C364.999 91.5975 364.709 90.9475 364.169 90.4175H364.159ZM350.679 120.108L350.809 120.777H350.409L328.059 99.4875V117.057C328.059 117.797 328.329 118.428 328.859 118.938C329.389 119.457 330.029 119.717 330.759 119.717H331.599V120.158H318.189V119.717H318.989C319.759 119.717 320.409 119.457 320.939 118.938C321.469 118.428 321.739 117.778 321.739 117.018V94.0475C321.739 92.0975 321.599 90.4775 321.339 89.1775L321.249 88.5175H321.649L343.989 109.807V92.3275C343.969 91.5575 343.679 90.9175 343.149 90.3975C342.619 89.8875 341.989 89.6275 341.249 89.6275H340.449V89.1875H353.859V89.6275H353.019C351.989 89.6275 351.209 90.0675 350.679 90.9575C350.449 91.3375 350.309 91.7775 350.279 92.2775V115.117C350.279 117.097 350.419 118.767 350.679 120.117V120.108ZM467.069 192.557C460.819 213.487 442.989 224.358 416.269 235.118C404.389 239.898 395.039 245.477 388.469 251.697C381.899 245.477 372.549 239.898 360.659 235.118C333.939 224.368 316.129 213.488 309.869 192.548C308.519 188.018 307.839 182.928 307.839 177.418V128.617H469.109V177.418C469.109 182.938 468.419 188.038 467.079 192.568L467.069 192.557Z" fill="#26326B"/>
<path d="M303.218 13.7305C281.658 18.2705 264.198 37.1905 261.738 59.1405C279.118 47.9005 293.208 31.7805 303.218 13.7305Z" fill="#D3A63C"/>
<path d="M255.43 32.4922C247.13 41.0722 240.88 51.8422 238.71 63.6622C236.77 72.9222 238.65 82.8422 243.65 90.8522C252.52 72.8522 257.67 52.6322 255.43 32.4922Z" fill="#D3A63C"/>
<path d="M236.339 136.919C239.089 116.959 238.559 96.0187 230.469 77.2188C225.169 88.8687 221.229 102.069 223.879 114.979C225.419 123.309 229.009 132.089 236.339 136.919Z" fill="#D3A63C"/>
<path d="M259.108 130.082C253.738 134.432 249.088 139.862 246.638 146.402C242.268 158.032 243.368 171.262 248.168 182.592C258.838 167.552 260.888 147.982 259.108 130.082Z" fill="#D3A63C"/>
<path d="M262.749 170.379C258.539 176.139 254.919 182.819 255.139 190.169C254.259 202.199 259.149 214.329 267.389 223.009C269.609 214.819 269.849 206.329 269.339 197.909C269.109 194.139 268.579 190.389 267.749 186.699C266.499 181.139 265.169 175.569 262.749 170.379Z" fill="#D3A63C"/>
<path d="M223.689 180C225.399 191.4 229.459 202.72 236.819 211.72C242.819 219.75 252.249 224.85 262.129 226.18C253.109 208.21 241.679 190.09 223.689 180Z" fill="#D3A63C"/>
<path d="M265.449 254.762C273.779 260.352 284.129 262.462 294.039 261.132C279.829 246.522 263.269 232.112 242.559 228.422C248.129 238.732 255.609 248.232 265.449 254.762Z" fill="#D3A63C"/>
<path d="M300.44 236.18C300.14 242.14 300.82 248.26 303.71 253.58C309.78 265.22 321.75 272.58 334.06 276.12C329.53 258.52 315.08 245.77 300.43 236.18H300.44Z" fill="#D3A63C"/>
<path d="M353.509 266.101C347.079 263.231 340.479 260.451 333.469 259.391C335.539 265.861 339.249 271.881 344.759 275.941C350.979 281.111 358.999 282.941 366.839 284.061C367.959 284.221 369.089 284.301 370.219 284.311C372.259 284.321 374.299 284.311 376.339 284.261C370.939 275.921 362.379 270.211 353.499 266.101H353.509Z" fill="#D3A63C"/>
<path d="M331.9 282.341C314.89 271.001 294.3 265.031 273.84 266.421C279.4 271.881 285.4 277.021 292.49 280.371C304.53 286.451 319.42 287.931 331.9 282.341Z" fill="#D3A63C"/>
<path d="M320.68 294.162C320.68 294.162 320.68 294.172 320.68 294.182C320.71 294.582 320.96 294.922 321.32 295.082C329.51 298.692 338.21 301.702 347.28 301.402C358.05 301.782 369.21 297.672 376.34 289.422C358.07 286.862 338.99 286.972 321.39 293.042C320.92 293.202 320.62 293.672 320.66 294.162H320.68Z" fill="#D3A63C"/>
<path d="M248.699 93.3011C266.109 87.0911 278.699 72.1911 287.219 56.3211C279.019 56.2611 271.059 59.5611 264.839 64.8011C256.289 72.0111 251.209 82.5511 248.699 93.3011Z" fill="#D3A63C"/>
<path d="M241.518 137.791C256.468 127.071 264.689 109.031 266.979 91.1406C262.009 93.2006 257.178 95.8706 253.548 99.9006C244.078 109.921 240.658 124.321 241.518 137.791Z" fill="#D3A63C"/>
<path d="M241.959 184.142C241.599 177.042 239.839 170.122 238.019 163.282C234.279 150.642 228.949 137.672 218.849 128.742C218.409 138.322 218.059 148.172 221.029 157.412C224.129 168.612 231.479 178.812 241.949 184.142H241.959Z" fill="#D3A63C"/>
<path d="M274.69 219.1C275.19 234.53 284.54 248.8 297.66 256.6C297.58 238.39 288.97 221.28 277.25 207.77C274.4 210.68 274.69 214.93 274.69 219.1Z" fill="#D3A63C"/>
<path d="M515.23 59.4922C512.78 37.4322 495.36 18.2922 473.66 13.7422C483.68 31.9522 498.01 47.8122 515.23 59.4922Z" fill="#D3A63C"/>
<path d="M533.34 91.002C537.12 84.152 539.47 76.362 538.81 68.482C537.59 54.922 530.95 42.212 521.48 32.582C520.73 40.782 521.09 49.052 521.84 57.242C524.49 68.842 527.86 80.392 533.34 90.992V91.002Z" fill="#D3A63C"/>
<path d="M553.17 113.821C555.44 101.241 551.49 88.5314 546.41 77.1914C538.26 96.1814 537.72 117.391 540.66 137.571C547.56 131.511 552 122.921 553.17 113.831V113.821Z" fill="#D3A63C"/>
<path d="M509.48 223.051C522.66 209.451 527.14 185.401 513.87 170.371C507.61 187.051 504.61 205.601 509.48 223.051Z" fill="#D3A63C"/>
<path d="M553.19 180.043C535.17 190.063 523.74 208.213 514.75 226.163C522.53 225.133 529.98 221.763 535.76 216.453C545.68 206.853 551.18 193.513 553.2 180.043H553.19Z" fill="#D3A63C"/>
<path d="M534.29 228.422C513.58 232.112 497.04 246.532 482.83 261.132C490.9 262.122 499.26 261.132 506.6 257.482C518.85 251.352 527.87 240.282 534.3 228.422H534.29Z" fill="#D3A63C"/>
<path d="M465.169 263.841C471.759 257.151 475.129 247.621 474.259 238.281C459.649 247.931 444.869 260.671 440.689 278.441C449.669 275.251 458.709 271.101 465.159 263.841H465.169Z" fill="#D3A63C"/>
<path d="M400.59 287.462C402.44 287.422 404.3 287.352 406.16 287.262C407.54 287.192 408.92 287.012 410.27 286.732C414.5 285.852 418.78 285.062 422.74 283.242C432.05 279.282 439.36 270.912 441.67 261.012C425.94 265.392 409.5 273.132 400.59 287.472V287.462Z" fill="#D3A63C"/>
<path d="M500.54 268.464C479.77 267.224 459 273.464 441.77 285.004C447.18 286.074 452.57 287.984 458.2 287.824C474.38 288.604 489.95 280.334 500.53 268.474L500.54 268.464Z" fill="#D3A63C"/>
<path d="M400.85 292.531C406.01 298.041 413.12 301.401 420.51 302.661C433.42 304.701 446.4 300.681 457.58 294.421C439.27 288.391 419.56 289.061 400.85 292.531Z" fill="#D3A63C"/>
<path d="M489.66 56.3111C498.13 72.2011 510.77 87.0811 528.17 93.3211C526.01 84.2911 522.19 75.4612 515.9 68.5212C509.24 61.1812 499.68 56.2512 489.66 56.3012V56.3111Z" fill="#D3A63C"/>
<path d="M529.25 108.022C525.14 100.242 518.12 94.2223 509.9 91.1523C512.18 109.042 520.4 127.072 535.35 137.822C535.95 127.602 534.23 117.052 529.25 108.022Z" fill="#D3A63C"/>
<path d="M533.85 183.923C540.61 182.113 545.53 176.543 549.5 171.113C558.03 158.653 559.2 142.983 557.95 128.363C543.73 142.383 537.87 162.483 534.98 181.693C534.69 182.243 534.13 183.353 533.84 183.913L533.85 183.923Z" fill="#D3A63C"/>
<path d="M517.669 130.32C516.049 148.17 518.029 167.64 528.699 182.63C532.979 172.48 534.269 160.92 531.459 150.21C529.419 142.21 524.369 135.13 517.669 130.33V130.32Z" fill="#D3A63C"/>
<path d="M479.75 256.444C488.22 250.824 495.43 242.934 499.17 233.394C502.54 225.154 502.76 215.724 500.07 207.254C492.81 215.524 486.91 225.014 482.96 235.284C480.9 242.154 479.45 249.244 479.75 256.444Z" fill="#D3A63C"/>
<path d="M389.209 0L393.729 13.92H408.359L396.529 22.52L401.049 36.43L389.209 27.83L377.369 36.43L381.889 22.52L370.059 13.92H384.689L389.209 0Z" fill="#26326B"/>
<path d="M334.148 14.3906L337.958 26.1306H350.318L340.318 33.3906L344.138 45.1406L334.148 37.8806L324.159 45.1406L327.969 33.3906L317.979 26.1306H330.328L334.148 14.3906Z" fill="#26326B"/>
<path d="M442.789 14.3906L446.609 26.1306H458.959L448.969 33.3906L452.779 45.1406L442.789 37.8806L432.799 45.1406L436.619 33.3906L426.619 26.1306H438.979L442.789 14.3906Z" fill="#26326B"/>
<path d="M385.348 220.07C377.458 215.43 371.368 216.22 371.368 216.22H342.568V155.96L346.938 151.16L346.708 212.06C346.708 212.06 360.408 212.12 370.748 211.99C380.728 211.86 385.098 219.59 385.338 220.07H385.348Z" fill="#D3A63C"/>
<path d="M434.358 155.968V216.228H405.578C405.578 216.228 399.508 215.438 391.598 220.078C391.838 219.608 396.208 211.878 406.208 211.998C416.518 212.128 430.218 212.068 430.218 212.068L430.008 151.168L434.358 155.968Z" fill="#D3A63C"/>
<path d="M402.028 145.69C402.028 145.69 396.828 145.2 392.418 149.41C392.418 149.41 392.328 153.63 395.628 158.95C398.878 164.29 404.378 173.48 391.228 182.3C391.518 181.93 394.518 178.29 393.248 174.97C393.248 174.97 393.078 179.77 389.478 181.1C389.818 180.6 393.718 174.97 390.508 168.23C390.508 168.23 389.308 181.27 385.148 177.48C385.148 177.48 383.788 176.58 383.168 174.57C383.168 174.57 383.278 179.94 387.138 183.15C386.378 182.85 371.258 176.39 380.078 163.82C381.028 162.5 381.728 161 381.958 159.35C382.228 157.66 382.188 155.63 381.138 154.21C381.708 154.77 386.798 160.57 385.558 170.55C385.558 170.55 388.908 164.12 385.158 156.03C381.518 148.27 387.608 141.4 388.068 140.92C387.878 141.66 384.598 153.72 391.508 160.05C391.508 160.05 389.328 150.44 392.868 145.8C392.638 145.93 389.188 148.15 389.328 150.9C389.328 150.9 388.298 142.97 388.968 138.59C388.968 138.59 382.958 143.83 381.908 147.9C381.908 147.9 377.808 145.74 374.988 145.74C372.168 145.74 350.588 145.91 350.588 145.91V208.37H374.288C374.288 208.37 378.168 207.75 380.398 209.79V196.29H396.908L396.488 209.79C396.488 209.79 399.118 208.5 404.088 208.16C408.998 207.89 426.558 208.07 426.558 208.07V145.7H401.998L402.028 145.69ZM356.968 155.54H372.328C372.518 155.54 376.698 155.77 378.288 157.23L377.688 157.89C376.568 156.87 373.438 156.49 372.308 156.44H356.968V155.54ZM372.328 170.13C372.398 170.13 373.028 170.16 373.878 170.29L373.978 171.19C373.288 171.08 372.688 171.02 372.328 171.02H356.978V170.13H372.328ZM356.978 166.18V165.23H372.328C372.418 165.23 373.288 165.32 374.378 165.49L374.108 166.36C373.388 166.23 372.708 166.17 372.328 166.17H356.978V166.18ZM372.328 174.97C372.418 175 373.288 175.01 374.378 175.23L374.478 176.13C373.588 176 372.788 175.9 372.328 175.87H356.978V174.97H372.328ZM372.328 161.29H356.978V160.37H372.328C372.468 160.41 374.658 160.51 376.468 161.11L376.028 161.93C374.678 161.49 373.078 161.31 372.338 161.29H372.328ZM356.968 179.85H372.328C372.518 179.85 376.698 180.05 378.288 181.57L377.688 182.21C376.568 181.15 373.438 180.79 372.308 180.71H356.968V179.85ZM356.968 184.69H372.328C372.518 184.7 376.698 184.92 378.288 186.42L377.688 187.08C376.568 186.03 373.438 185.63 372.308 185.59H356.968V184.69ZM370.728 190.45H356.978V189.58H370.648L370.718 190.45H370.728ZM376.538 200.99C375.108 200.43 373.128 200.23 372.328 200.19H356.978V199.29H372.328C372.468 199.29 374.708 199.4 376.538 200.05V201V200.99ZM376.538 196.15C375.108 195.59 373.128 195.35 372.328 195.33H356.978V194.43H372.328C372.468 194.43 374.708 194.56 376.538 195.17V196.14V196.15ZM378.728 193.7C377.308 193.7 376.018 193.1 375.088 192.17C374.188 191.2 373.598 189.85 373.598 188.4H403.478C403.478 191.32 401.218 193.7 398.398 193.7H378.728ZM418.858 200.18H403.538C402.698 200.22 400.718 200.42 399.328 200.98V200.03C401.128 199.39 403.378 199.27 403.498 199.27H418.858V200.17V200.18ZM418.858 195.33H403.538C402.698 195.34 400.718 195.59 399.328 196.15V195.18C401.128 194.56 403.378 194.44 403.498 194.44H418.858V195.34V195.33ZM418.858 190.45H405.128L405.218 189.58H418.868V190.45H418.858ZM418.858 185.59H403.538C402.408 185.63 399.288 186.03 398.168 187.08L397.578 186.42C399.138 184.92 403.318 184.7 403.488 184.69H418.848V185.59H418.858ZM418.858 180.71H403.538C402.408 180.8 399.288 181.15 398.168 182.21L397.578 181.57C399.138 180.05 403.318 179.85 403.488 179.85H418.848V180.71H418.858ZM418.858 175.87H403.538C403.098 175.9 402.248 176 401.408 176.13L401.468 175.23C402.588 175.02 403.428 175 403.498 174.97H418.858V175.87ZM418.858 171.02H403.538C403.148 171.02 402.578 171.08 401.878 171.19L401.968 170.29C402.828 170.16 403.438 170.13 403.498 170.13H418.858V171.02ZM418.858 166.18H403.538C403.138 166.18 402.478 166.24 401.738 166.37L401.508 165.5C402.578 165.33 403.428 165.24 403.498 165.24H418.858V166.19V166.18ZM418.858 161.29H403.538C402.808 161.32 401.128 161.49 399.818 161.93L399.378 161.11C401.178 160.51 403.388 160.41 403.498 160.37H418.858V161.29ZM418.858 156.44H403.538C402.408 156.48 399.288 156.87 398.168 157.89L397.578 157.23C399.138 155.77 403.318 155.54 403.488 155.54H418.848V156.44H418.858Z" fill="#D3A63C"/>
<path d="M51.05 341.381C49.54 341.381 48.39 342.031 47.61 343.331C47.26 343.891 47.07 344.541 47.03 345.281V378.751C47.03 381.651 47.22 384.091 47.61 386.081L47.8 387.051H47.22L14.46 355.851V381.601C14.46 382.681 14.85 383.601 15.63 384.361C16.41 385.121 17.34 385.491 18.42 385.491H19.65V386.141H0V385.491H1.17C2.29 385.491 3.25 385.111 4.02 384.361C4.8 383.601 5.19 382.661 5.19 381.541V347.881C5.19 345.031 5 342.651 4.61 340.751L4.48 339.781H5.06L37.82 370.981V345.361C37.78 344.241 37.37 343.301 36.59 342.541C35.81 341.781 34.88 341.411 33.8 341.411H32.63V340.761H52.28V341.411H51.05V341.381Z" fill="#26326B"/>
<path d="M55.1992 366.671C55.1992 360.441 57.2892 355.501 61.4592 351.851C65.6292 348.201 71.1892 346.371 78.1292 346.371C85.0692 346.371 90.6392 348.201 94.8292 351.851C99.0192 355.511 101.119 360.441 101.119 366.671C101.119 372.901 99.0192 377.841 94.8292 381.491C90.6292 385.151 85.0792 386.971 78.1592 386.971C71.2392 386.971 65.6792 385.141 61.4892 381.491C57.2892 377.841 55.1992 372.901 55.1992 366.671ZM65.1192 366.671C65.1192 372.121 66.2992 376.431 68.6592 379.611C71.0192 382.791 74.1692 384.381 78.1292 384.381C82.0892 384.381 85.2392 382.791 87.5992 379.611C89.9592 376.431 91.1392 372.121 91.1392 366.671C91.1392 361.221 89.9592 356.911 87.5992 353.731C85.2392 350.551 82.0892 348.961 78.1292 348.961C74.1692 348.961 71.0192 350.551 68.6592 353.731C66.2992 356.911 65.1192 361.221 65.1192 366.671Z" fill="#26326B"/>
<path d="M120.899 349.871H118.829V382.041C118.829 383.081 119.189 383.911 119.899 384.541C120.609 385.171 121.419 385.481 122.329 385.481H123.039V386.131H105.199V385.481H105.979C106.929 385.481 107.739 385.161 108.409 384.511C109.079 383.861 109.409 383.061 109.409 382.111V351.231C109.409 350.281 109.079 349.481 108.409 348.831C107.739 348.181 106.949 347.861 106.039 347.861H105.199V347.211H125.109C128.999 347.211 132.269 347.971 134.899 349.481C137.839 351.171 139.309 353.961 139.309 357.851C139.309 360.361 138.549 362.621 137.039 364.631C135.529 366.641 133.279 367.861 130.289 368.301C131.459 368.691 132.609 369.421 133.759 370.501C134.909 371.581 135.819 372.681 136.519 373.811C137.899 376.271 139.349 378.541 140.869 380.591C142.389 382.641 143.599 383.971 144.539 384.581C145.469 385.191 146.599 385.491 147.939 385.491V386.141H142.489C138.899 386.141 136.139 385.711 134.219 384.841C132.299 383.981 130.579 382.331 129.059 379.911C126.719 376.191 125.279 373.251 124.709 371.091C124.189 369.791 123.569 368.821 122.859 368.171C122.149 367.521 121.469 367.151 120.819 367.071V366.551H122.439C126.109 366.511 128.359 364.351 129.189 360.061C129.359 359.411 129.449 358.851 129.449 358.371C129.449 357.891 129.429 357.241 129.389 356.391C129.349 355.551 129.079 354.601 128.579 353.541C128.079 352.481 127.439 351.711 126.669 351.241C125.329 350.421 123.949 349.991 122.519 349.941C122.039 349.901 121.499 349.881 120.899 349.881V349.871Z" fill="#26326B"/>
<path d="M181.43 356.43V355.85C181.43 353.99 180.91 352.52 179.87 351.44C178.83 350.36 177.38 349.8 175.52 349.75H168V382.12C168.04 383.07 168.41 383.87 169.1 384.52C169.79 385.17 170.61 385.49 171.56 385.49H172.27V386.14H154.37V385.49H155.02C156.01 385.49 156.86 385.17 157.55 384.52C158.24 383.87 158.59 383.05 158.59 382.05V349.75H151.13C149.23 349.79 147.76 350.36 146.72 351.44C145.68 352.52 145.16 353.99 145.16 355.85V356.43H144.51V346.18C145.12 346.4 146.12 346.61 147.53 346.83C148.93 347.05 150.2 347.15 151.32 347.15H175.26C177.16 347.15 178.73 347.01 179.96 346.73C181.19 346.45 181.89 346.27 182.07 346.18V356.43H181.42H181.43Z" fill="#26326B"/>
<path d="M229.1 385.481H229.81V386.131H211.97V385.481H212.62C213.61 385.481 214.46 385.161 215.15 384.511C215.84 383.861 216.19 383.041 216.19 382.041V368.031H199.13V382.041C199.17 383.041 199.54 383.861 200.23 384.511C200.92 385.161 201.74 385.481 202.69 385.481H203.4V386.131H185.5V385.481H186.21C187.2 385.481 188.05 385.151 188.74 384.481C189.43 383.811 189.78 383.001 189.78 382.051V351.301C189.78 350.351 189.43 349.541 188.74 348.871C188.05 348.201 187.2 347.861 186.21 347.861H185.5V347.211H203.4V347.861H202.69C201.74 347.861 200.92 348.181 200.23 348.831C199.54 349.481 199.17 350.281 199.13 351.231V365.441H216.19V351.301C216.19 349.961 215.61 348.971 214.44 348.321C213.88 348.021 213.27 347.871 212.62 347.871H211.97V347.221H229.81V347.871H229.1C228.15 347.871 227.33 348.191 226.64 348.841C225.95 349.491 225.58 350.311 225.54 351.301V382.111C225.58 383.451 226.17 384.421 227.29 385.031C227.85 385.331 228.46 385.481 229.11 385.481H229.1Z" fill="#26326B"/>
<path d="M254.59 386.13H234.09V385.48H234.93C236.49 385.48 237.68 384.81 238.5 383.47C238.85 382.86 239.04 382.19 239.08 381.46V345.4C239.04 344.28 238.62 343.33 237.82 342.55C237.02 341.77 236.06 341.38 234.93 341.38H234.09V340.73H252.9C257.92 340.73 261.91 341.64 264.87 343.45C267.83 345.27 269.33 348.06 269.38 351.82C269.34 353.72 268.93 355.39 268.15 356.82C266.72 359.5 264.47 361.04 261.4 361.42C264.73 361.72 267.48 362.97 269.64 365.15C271.8 367.33 272.88 370.11 272.88 373.49C272.88 377.55 271.25 380.68 267.98 382.86C264.71 385.04 260.25 386.14 254.59 386.14V386.13ZM259 352.66C258.96 346.56 256.19 343.51 250.7 343.51H248.82V383.14H251.93C254.91 383.14 257.29 382.28 259.07 380.55C260.84 378.82 261.73 376.18 261.73 372.64C261.73 369.1 260.73 366.46 258.75 364.73C256.76 363 254.19 362.14 251.03 362.14V361.56C253.28 361.56 255.16 360.84 256.67 359.39C258.18 357.94 258.96 355.7 259 352.68V352.66Z" fill="#26326B"/>
<path d="M293.19 349.871H291.12V382.041C291.12 383.081 291.48 383.911 292.19 384.541C292.9 385.171 293.71 385.481 294.62 385.481H295.33V386.131H277.49V385.481H278.27C279.22 385.481 280.03 385.161 280.7 384.511C281.37 383.861 281.7 383.061 281.7 382.111V351.231C281.7 350.281 281.37 349.481 280.7 348.831C280.03 348.181 279.24 347.861 278.33 347.861H277.49V347.211H297.4C301.29 347.211 304.56 347.971 307.19 349.481C310.13 351.171 311.6 353.961 311.6 357.851C311.6 360.361 310.84 362.621 309.33 364.631C307.82 366.641 305.57 367.861 302.58 368.301C303.75 368.691 304.9 369.421 306.05 370.501C307.2 371.581 308.11 372.681 308.81 373.811C310.19 376.271 311.64 378.541 313.16 380.591C314.68 382.641 315.89 383.971 316.83 384.581C317.76 385.191 318.89 385.491 320.23 385.491V386.141H314.78C311.19 386.141 308.43 385.711 306.51 384.841C304.59 383.981 302.87 382.331 301.35 379.911C299.01 376.191 297.57 373.251 297 371.091C296.48 369.791 295.86 368.821 295.15 368.171C294.44 367.521 293.76 367.151 293.11 367.071V366.551H294.73C298.4 366.511 300.65 364.351 301.48 360.061C301.65 359.411 301.74 358.851 301.74 358.371C301.74 357.891 301.72 357.241 301.68 356.391C301.64 355.551 301.37 354.601 300.87 353.541C300.37 352.481 299.73 351.711 298.96 351.241C297.62 350.421 296.24 349.991 294.81 349.941C294.33 349.901 293.79 349.881 293.19 349.881V349.871Z" fill="#26326B"/>
<path d="M319.65 385.481H320.43C321.47 385.481 322.35 385.151 323.09 384.481C323.82 383.811 324.19 383.001 324.19 382.051V351.301C324.19 350.351 323.82 349.541 323.09 348.871C322.35 348.201 321.47 347.861 320.43 347.861H319.65V347.211H338.07V347.861H337.29C336.3 347.861 335.43 348.181 334.7 348.831C333.96 349.481 333.58 350.281 333.53 351.231V382.041C333.57 383.041 333.96 383.861 334.7 384.511C335.43 385.161 336.3 385.481 337.29 385.481H338.07V386.131H319.65V385.481Z" fill="#26326B"/>
<path d="M380.3 352.373C384.23 355.813 386.2 360.583 386.2 366.673C386.2 372.763 384.23 377.533 380.3 380.973C376.36 384.413 370.92 386.133 363.95 386.133H342.03V385.483H342.87C343.86 385.483 344.71 385.133 345.4 384.443C346.09 383.753 346.46 382.933 346.5 381.973V351.223C346.41 350.273 346.02 349.473 345.33 348.823C344.64 348.173 343.79 347.853 342.8 347.853H342.02V347.203H363.94C370.9 347.203 376.35 348.923 380.29 352.363L380.3 352.373ZM363.17 383.543C367.23 383.543 370.44 382.053 372.8 379.063C375.16 376.083 376.33 371.953 376.33 366.673C376.33 361.393 375.15 357.253 372.8 354.253C370.44 351.243 367.23 349.743 363.17 349.743H355.84V383.533H363.17V383.543Z" fill="#26326B"/>
<path d="M397.191 381.503C393.321 377.893 391.381 372.933 391.381 366.613C391.381 360.293 393.311 355.353 397.191 351.763C401.061 348.173 406.391 346.383 413.181 346.383C416.211 346.383 419.191 346.653 422.131 347.193C425.071 347.733 427.451 348.453 429.271 349.363V359.673H428.751C426.851 352.533 422.311 348.973 415.131 348.973C410.631 348.973 407.211 350.543 404.851 353.673C402.491 356.813 401.311 361.173 401.311 366.773C401.311 372.373 402.381 376.713 404.521 379.783C406.661 382.853 409.701 384.393 413.631 384.393C415.791 384.393 417.741 383.883 419.471 382.873C421.201 381.853 422.341 380.403 422.911 378.493L422.971 370.713C422.971 369.893 422.721 369.253 422.221 368.803C421.721 368.353 421.021 368.123 420.111 368.123H419.201V367.603H435.871V368.123H435.091C433.191 368.123 432.241 368.993 432.241 370.713V379.403C430.731 381.353 428.171 383.103 424.591 384.653C421.001 386.213 417.071 386.993 412.781 386.993C406.251 386.953 401.051 385.123 397.181 381.513L397.191 381.503Z" fill="#26326B"/>
<path d="M468.12 386.132H437.57V385.482H438.35C439.34 385.482 440.18 385.162 440.85 384.512C441.52 383.862 441.88 383.062 441.92 382.112V351.232C441.88 350.282 441.52 349.482 440.85 348.832C440.18 348.182 439.35 347.862 438.35 347.862H437.57V347.212H460.4C461.57 347.212 462.84 347.102 464.23 346.892C465.61 346.672 466.59 346.462 467.15 346.242V356.552H466.5V355.972C466.5 354.072 465.98 352.582 464.94 351.492C463.9 350.412 462.45 349.852 460.59 349.802H451.25V365.562H458.64C460.11 365.522 461.3 365.022 462.21 364.072C463.12 363.122 463.57 361.912 463.57 360.442V359.992H464.22V373.742H463.57V373.292C463.57 371.262 462.81 369.792 461.3 368.882C460.52 368.402 459.66 368.172 458.71 368.172H451.25V383.542H459.03C461.71 383.502 463.99 382.662 465.87 381.042C467.75 379.422 469.12 377.142 469.99 374.202H470.57L468.11 386.132H468.12Z" fill="#26326B"/>
<path d="M517.81 387.01C509.46 386.99 502.91 384.88 498.16 380.68C493.4 376.49 491.02 370.73 491.02 363.43C491.02 356.13 493.38 350.36 498.09 346.14C502.8 341.92 509.27 339.82 517.48 339.82C523.75 339.82 529.13 340.99 533.63 343.32L533.76 354.48H533.24C531.03 346.52 526 342.55 518.13 342.55C513.03 342.55 508.99 344.4 506.03 348.1C503.07 351.8 501.59 356.85 501.59 363.25C501.59 369.65 503.01 374.73 505.84 378.49C508.67 382.25 512.51 384.2 517.35 384.33C522.37 384.33 526.19 383.08 528.83 380.57C531.51 377.98 533.37 373.52 534.41 367.21H534.93L535.58 378.37C532.08 384.17 526.15 387.05 517.81 387.03V387.01Z" fill="#26326B"/>
<path d="M540.971 366.671C540.971 360.441 543.061 355.501 547.231 351.851C551.401 348.201 556.961 346.371 563.901 346.371C570.841 346.371 576.411 348.201 580.601 351.851C584.791 355.511 586.891 360.441 586.891 366.671C586.891 372.901 584.791 377.841 580.601 381.491C576.401 385.151 570.851 386.971 563.931 386.971C557.011 386.971 551.451 385.141 547.261 381.491C543.061 377.841 540.971 372.901 540.971 366.671ZM550.891 366.671C550.891 372.121 552.071 376.431 554.431 379.611C556.791 382.791 559.941 384.381 563.901 384.381C567.861 384.381 571.011 382.791 573.371 379.611C575.731 376.431 576.911 372.121 576.911 366.671C576.911 361.221 575.731 356.911 573.371 353.731C571.011 350.551 567.861 348.961 563.901 348.961C559.941 348.961 556.791 350.551 554.431 353.731C552.071 356.911 550.891 361.221 550.891 366.671Z" fill="#26326B"/>
<path d="M590.52 386.131V385.481H591.3C592.29 385.481 593.13 385.161 593.8 384.511C594.47 383.861 594.81 383.061 594.81 382.111V351.301C594.81 350.351 594.46 349.541 593.77 348.871C593.08 348.201 592.26 347.861 591.3 347.861H590.52V347.211H608.55V347.861H607.77C606.77 347.861 605.93 348.181 605.24 348.831C604.55 349.481 604.2 350.301 604.2 351.291V383.531H611.98C614.66 383.491 616.93 382.651 618.79 381.031C620.65 379.411 622.01 377.131 622.88 374.191H623.59L621.06 386.121H590.51L590.52 386.131Z" fill="#26326B"/>
<path d="M625.481 386.131V385.481H626.261C627.251 385.481 628.091 385.161 628.761 384.511C629.431 383.861 629.771 383.061 629.771 382.111V351.301C629.771 350.351 629.421 349.541 628.731 348.871C628.041 348.201 627.221 347.861 626.261 347.861H625.481V347.211H643.511V347.861H642.731C641.731 347.861 640.891 348.181 640.201 348.831C639.511 349.481 639.161 350.301 639.161 351.291V383.531H646.941C649.621 383.491 651.891 382.651 653.751 381.031C655.611 379.411 656.971 377.131 657.841 374.191H658.551L656.021 386.121H625.471L625.481 386.131Z" fill="#26326B"/>
<path d="M690.999 386.132H660.449V385.482H661.229C662.219 385.482 663.059 385.162 663.729 384.512C664.399 383.862 664.759 383.062 664.799 382.112V351.232C664.759 350.282 664.399 349.482 663.729 348.832C663.059 348.182 662.229 347.862 661.229 347.862H660.449V347.212H683.279C684.449 347.212 685.719 347.102 687.109 346.892C688.489 346.672 689.469 346.462 690.029 346.242V356.552H689.379V355.972C689.379 354.072 688.859 352.582 687.819 351.492C686.779 350.412 685.329 349.852 683.469 349.802H674.129V365.562H681.519C682.989 365.522 684.179 365.022 685.089 364.072C685.999 363.122 686.449 361.912 686.449 360.442V359.992H687.099V373.742H686.449V373.292C686.449 371.262 685.689 369.792 684.179 368.882C683.399 368.402 682.539 368.172 681.589 368.172H674.129V383.542H681.909C684.589 383.502 686.869 382.662 688.749 381.042C690.629 379.422 691.999 377.142 692.869 374.202H693.449L690.989 386.132H690.999Z" fill="#26326B"/>
<path d="M703.55 381.503C699.68 377.893 697.74 372.933 697.74 366.613C697.74 360.293 699.67 355.353 703.55 351.763C707.42 348.173 712.75 346.383 719.54 346.383C722.57 346.383 725.55 346.653 728.49 347.193C731.43 347.733 733.81 348.453 735.63 349.363V359.673H735.11C733.21 352.533 728.67 348.973 721.49 348.973C716.99 348.973 713.57 350.543 711.21 353.673C708.85 356.813 707.67 361.173 707.67 366.773C707.67 372.373 708.74 376.713 710.88 379.783C713.02 382.853 716.06 384.393 719.99 384.393C722.15 384.393 724.1 383.883 725.83 382.873C727.56 381.853 728.7 380.403 729.27 378.493L729.33 370.713C729.33 369.893 729.08 369.253 728.58 368.803C728.08 368.353 727.38 368.123 726.47 368.123H725.56V367.603H742.23V368.123H741.45C739.55 368.123 738.6 368.993 738.6 370.713V379.403C737.09 381.353 734.53 383.103 730.95 384.653C727.36 386.213 723.43 386.993 719.14 386.993C712.61 386.953 707.41 385.123 703.54 381.513L703.55 381.503Z" fill="#26326B"/>
<path d="M774.48 386.132H743.93V385.482H744.71C745.7 385.482 746.54 385.162 747.21 384.512C747.88 383.862 748.24 383.062 748.28 382.112V351.232C748.24 350.282 747.88 349.482 747.21 348.832C746.54 348.182 745.71 347.862 744.71 347.862H743.93V347.212H766.76C767.93 347.212 769.2 347.102 770.59 346.892C771.97 346.672 772.95 346.462 773.51 346.242V356.552H772.86V355.972C772.86 354.072 772.34 352.582 771.3 351.492C770.26 350.412 768.81 349.852 766.95 349.802H757.61V365.562H765C766.47 365.522 767.66 365.022 768.57 364.072C769.48 363.122 769.93 361.912 769.93 360.442V359.992H770.58V373.742H769.93V373.292C769.93 371.262 769.17 369.792 767.66 368.882C766.88 368.402 766.02 368.172 765.07 368.172H757.61V383.542H765.39C768.07 383.502 770.35 382.662 772.23 381.042C774.11 379.422 775.48 377.142 776.35 374.202H776.93L774.47 386.132H774.48Z" fill="#26326B"/>
<path d="M17.1298 433.01C17.7398 433.01 18.2098 432.86 18.5398 432.55C19.0798 432.01 19.3598 431.44 19.3798 430.83V421.86H7.98978V430.79C7.98978 431.4 8.20977 431.92 8.65977 432.35C9.10977 432.78 9.62978 433 10.2398 433H10.6598L10.6998 433.35H0.00976562V433H0.469772C1.07977 433 1.59978 432.78 2.03978 432.35C2.46978 431.92 2.69977 431.39 2.72977 430.79V411.31C2.70977 410.7 2.47978 410.18 2.03978 409.75C1.60978 409.32 1.07977 409.1 0.469772 409.1H0.00976562V408.75H10.6998L10.6598 409.1H10.2398C9.62978 409.1 9.09977 409.32 8.65977 409.75C8.21977 410.18 7.98978 410.71 7.98978 411.31V420.35H19.3798V411.31C19.3598 410.7 19.1298 410.18 18.6898 409.75C18.2498 409.32 17.7298 409.1 17.1298 409.1H16.6698V408.75H27.3598V409.1H26.8998C26.2898 409.1 25.7598 409.32 25.3198 409.75C24.8798 410.18 24.6498 410.71 24.6498 411.31V430.79C24.6498 431.4 24.8698 431.92 25.3198 432.35C25.7698 432.78 26.2898 433 26.8998 433H27.3598V433.35H16.6698V433H17.1298V433.01Z" fill="#D3A63C"/>
<path d="M48.9506 433.368H32.3906V433.018H32.8106C33.3506 433.018 33.8006 432.838 34.1606 432.488C34.5206 432.138 34.7206 431.708 34.7406 431.188V414.448C34.7206 413.928 34.5206 413.498 34.1606 413.148C33.8006 412.798 33.3506 412.618 32.8106 412.618H32.3906V412.268H44.7706C45.4006 412.268 46.0906 412.208 46.8506 412.088C47.6006 411.968 48.1306 411.858 48.4306 411.738V417.328H48.0806V417.008C48.0806 415.978 47.8006 415.168 47.2406 414.578C46.6806 413.988 45.8906 413.688 44.8806 413.668H39.8206V422.218H43.8306C44.6306 422.198 45.2706 421.928 45.7606 421.408C46.2506 420.888 46.5006 420.238 46.5006 419.438V419.188H46.8506V426.638H46.5006V426.388C46.5006 425.288 46.0906 424.488 45.2706 423.998C44.8506 423.738 44.3806 423.608 43.8606 423.608H39.8206V431.938H44.0406C45.4906 431.918 46.7306 431.468 47.7506 430.588C48.7706 429.708 49.5106 428.468 49.9806 426.878H50.3006L48.9606 433.348L48.9506 433.368Z" fill="#D3A63C"/>
<path d="M77.2306 433.008H77.5106V433.358H67.1706V433.008H67.4506C67.9206 433.008 68.2606 432.868 68.4706 432.588C68.6806 432.308 68.7906 432.048 68.7906 431.818C68.7906 431.588 68.7406 431.338 68.6506 431.078L67.2806 427.838H59.8206L58.4106 431.108C58.3206 431.338 58.2706 431.578 58.2706 431.828C58.2706 432.078 58.3806 432.328 58.6006 432.598C58.8206 432.868 59.1706 432.998 59.6406 432.998H59.9206V433.348H52.8906V432.998H53.1706C53.6606 432.998 54.1506 432.848 54.6506 432.538C55.1506 432.228 55.5406 431.778 55.8506 431.168L63.1306 415.548C64.1606 413.228 64.7006 411.798 64.7506 411.258H65.0706L74.4906 431.018C74.7906 431.698 75.2006 432.198 75.7006 432.508C76.2006 432.828 76.7106 432.978 77.2306 432.978V433.008ZM60.4206 426.468H66.6806L63.5906 419.118L60.4206 426.468Z" fill="#D3A63C"/>
<path d="M80.459 433.368V433.018H80.879C81.419 433.018 81.869 432.838 82.229 432.488C82.589 432.138 82.779 431.708 82.779 431.188V414.478C82.779 413.958 82.589 413.528 82.219 413.158C81.839 412.798 81.399 412.608 80.879 412.608H80.459V412.258H90.239V412.608H89.819C89.279 412.608 88.819 412.788 88.449 413.138C88.069 413.488 87.889 413.938 87.889 414.478V431.958H92.109C93.559 431.938 94.799 431.488 95.799 430.608C96.809 429.728 97.549 428.488 98.019 426.898H98.409L97.039 433.368H80.469H80.459Z" fill="#D3A63C"/>
<path d="M119.039 417.259V416.939C119.039 415.929 118.759 415.129 118.199 414.549C117.639 413.969 116.849 413.659 115.839 413.639H111.759V431.189C111.779 431.709 111.979 432.139 112.359 432.489C112.739 432.839 113.179 433.019 113.699 433.019H114.089V433.369H104.379V433.019H104.729C105.269 433.019 105.729 432.839 106.099 432.489C106.469 432.139 106.659 431.689 106.659 431.149V413.639H102.619C101.589 413.659 100.789 413.969 100.229 414.549C99.6691 415.129 99.3891 415.929 99.3891 416.939V417.259H99.0391V411.699C99.3691 411.819 99.909 411.939 100.679 412.049C101.439 412.169 102.129 412.229 102.739 412.229H115.719C116.749 412.229 117.599 412.149 118.269 411.999C118.939 411.849 119.319 411.749 119.409 411.699V417.259H119.059H119.039Z" fill="#D3A63C"/>
<path d="M147.71 433.01H148.1V433.36H138.43V433.01H138.78C139.32 433.01 139.78 432.83 140.15 432.48C140.52 432.13 140.71 431.68 140.71 431.14V423.54H131.46V431.14C131.48 431.68 131.68 432.13 132.06 432.48C132.44 432.83 132.88 433.01 133.4 433.01H133.79V433.36H124.08V433.01H124.47C125.01 433.01 125.47 432.83 125.84 432.47C126.21 432.11 126.4 431.67 126.4 431.15V414.48C126.4 413.96 126.21 413.53 125.84 413.16C125.46 412.8 125.01 412.61 124.47 412.61H124.08V412.26H133.79V412.61H133.4C132.88 412.61 132.44 412.79 132.06 413.14C131.68 413.49 131.49 413.93 131.46 414.44V422.14H140.71V414.47C140.71 413.74 140.39 413.2 139.76 412.85C139.46 412.69 139.13 412.6 138.78 412.6H138.43V412.25H148.1V412.6H147.71C147.19 412.6 146.75 412.78 146.37 413.13C145.99 413.48 145.8 413.93 145.77 414.47V431.18C145.79 431.91 146.11 432.43 146.72 432.76C147.02 432.92 147.35 433.01 147.7 433.01H147.71Z" fill="#D3A63C"/>
<path d="M156.319 430.889C154.069 428.959 152.939 426.269 152.939 422.819C152.939 419.369 154.059 416.679 156.299 414.729C158.539 412.779 161.639 411.809 165.599 411.809C168.689 411.809 171.329 412.349 173.509 413.429V419.019H173.259C172.669 416.929 171.769 415.449 170.549 414.549C169.329 413.659 167.789 413.209 165.939 413.209C163.449 413.209 161.559 414.059 160.239 415.759C158.929 417.459 158.269 419.779 158.269 422.719C158.269 425.659 158.909 427.999 160.199 429.739C161.539 431.519 163.349 432.409 165.649 432.409C167.319 432.409 168.689 432.149 169.769 431.639C170.849 431.119 171.699 430.299 172.339 429.159C172.969 428.019 173.439 426.479 173.749 424.539H173.999L174.419 429.849C173.689 431.049 172.589 432.009 171.099 432.729C169.609 433.459 167.779 433.819 165.599 433.819C161.659 433.799 158.569 432.819 156.319 430.879V430.889Z" fill="#D3A63C"/>
<path d="M202.289 433.008H202.569V433.358H192.229V433.008H192.509C192.979 433.008 193.319 432.868 193.529 432.588C193.739 432.308 193.849 432.048 193.849 431.818C193.849 431.588 193.799 431.338 193.709 431.078L192.339 427.838H184.879L183.469 431.108C183.379 431.338 183.329 431.578 183.329 431.828C183.329 432.078 183.439 432.328 183.659 432.598C183.879 432.868 184.229 432.998 184.699 432.998H184.979V433.348H177.949V432.998H178.229C178.719 432.998 179.219 432.848 179.709 432.538C180.199 432.228 180.599 431.778 180.909 431.168L188.189 415.548C189.219 413.228 189.759 411.798 189.809 411.258H190.129L199.559 431.018C199.859 431.698 200.269 432.198 200.769 432.508C201.269 432.828 201.779 432.978 202.299 432.978L202.289 433.008ZM185.479 426.468H191.739L188.649 419.118L185.479 426.468Z" fill="#D3A63C"/>
<path d="M214.279 413.708H213.159V431.148C213.159 431.708 213.349 432.158 213.739 432.498C214.129 432.838 214.569 433.008 215.059 433.008H215.449V433.358H205.779V433.008H206.199C206.719 433.008 207.159 432.828 207.519 432.478C207.879 432.128 208.069 431.698 208.069 431.178V414.438C208.069 413.918 207.889 413.488 207.519 413.138C207.159 412.788 206.729 412.608 206.239 412.608H205.779V412.258H216.579C218.689 412.258 220.459 412.668 221.889 413.488C223.479 414.398 224.279 415.918 224.279 418.028C224.279 419.388 223.869 420.618 223.049 421.708C222.229 422.798 221.009 423.458 219.389 423.698C220.019 423.908 220.649 424.308 221.269 424.898C221.889 425.488 222.389 426.078 222.759 426.688C223.509 428.028 224.299 429.248 225.119 430.368C225.939 431.488 226.599 432.198 227.109 432.528C227.609 432.858 228.229 433.018 228.959 433.018V433.368H226.009C224.059 433.368 222.569 433.138 221.529 432.668C220.489 432.198 219.549 431.308 218.729 429.998C217.459 427.978 216.679 426.388 216.369 425.218C216.089 424.518 215.749 423.988 215.369 423.638C214.979 423.288 214.609 423.088 214.259 423.038V422.758H215.139C217.129 422.738 218.349 421.558 218.799 419.238C218.889 418.888 218.939 418.578 218.939 418.328C218.939 418.078 218.929 417.708 218.899 417.258C218.879 416.798 218.729 416.288 218.459 415.708C218.189 415.138 217.839 414.718 217.419 414.458C216.689 414.008 215.939 413.778 215.169 413.758C214.909 413.738 214.619 413.718 214.289 413.718L214.279 413.708Z" fill="#D3A63C"/>
<path d="M248.009 433.368H231.439V433.018H231.859C232.399 433.018 232.849 432.838 233.209 432.488C233.569 432.138 233.769 431.708 233.789 431.188V414.448C233.769 413.928 233.569 413.498 233.209 413.148C232.849 412.798 232.399 412.618 231.859 412.618H231.439V412.268H243.819C244.449 412.268 245.139 412.208 245.889 412.088C246.639 411.968 247.169 411.858 247.469 411.738V417.328H247.119V417.008C247.119 415.978 246.839 415.168 246.279 414.578C245.719 413.988 244.929 413.688 243.919 413.668H238.859V422.218H242.869C243.669 422.198 244.309 421.928 244.799 421.408C245.289 420.888 245.539 420.238 245.539 419.438V419.188H245.889V426.638H245.539V426.388C245.539 425.288 245.129 424.488 244.309 423.998C243.889 423.738 243.419 423.608 242.899 423.608H238.859V431.938H243.079C244.529 431.918 245.769 431.468 246.789 430.588C247.809 429.708 248.549 428.468 249.019 426.878H249.339L247.999 433.348L248.009 433.368Z" fill="#D3A63C"/>
<path d="M267.98 439.7V408.75H269.98V439.7H267.98Z" fill="#D3A63C"/>
<path d="M300.51 433.368H289.4V433.018H289.86C290.7 433.018 291.35 432.658 291.79 431.928C291.98 431.598 292.08 431.238 292.11 430.838V411.288C292.09 410.678 291.86 410.158 291.42 409.738C290.99 409.318 290.46 409.108 289.86 409.108H289.4V408.758H299.6C302.32 408.758 304.48 409.248 306.09 410.238C307.7 411.228 308.51 412.738 308.53 414.778C308.51 415.808 308.28 416.708 307.86 417.488C307.09 418.938 305.87 419.778 304.2 419.988C306.01 420.148 307.49 420.828 308.67 422.008C309.84 423.188 310.43 424.698 310.43 426.528C310.43 428.728 309.54 430.428 307.77 431.608C306 432.788 303.58 433.388 300.51 433.388V433.368ZM302.91 415.218C302.89 411.908 301.39 410.258 298.41 410.258H297.39V431.748H299.08C300.7 431.748 301.99 431.278 302.95 430.338C303.91 429.398 304.39 427.968 304.39 426.048C304.39 424.128 303.85 422.698 302.77 421.758C301.69 420.818 300.3 420.348 298.59 420.348V420.028C299.81 420.028 300.83 419.638 301.65 418.848C302.47 418.068 302.89 416.848 302.92 415.208L302.91 415.218Z" fill="#D3A63C"/>
<path d="M338.53 412.618H338.04C337.59 412.618 337.22 412.758 336.91 413.018C336.61 413.288 336.44 413.638 336.42 414.058V425.698C336.42 428.228 335.65 430.218 334.1 431.658C332.55 433.098 330.25 433.818 327.19 433.818C324.13 433.818 321.75 433.118 320.05 431.708C318.35 430.298 317.5 428.318 317.5 425.768V414.088C317.5 413.668 317.34 413.318 317.03 413.028C316.72 412.738 316.33 412.608 315.89 412.608H315.4V412.258H324.65V412.608H324.16C323.71 412.608 323.34 412.748 323.04 413.028C322.73 413.308 322.58 413.658 322.58 414.088V425.518C322.58 427.678 323.08 429.358 324.07 430.578C325.07 431.798 326.47 432.408 328.27 432.408C330.07 432.408 331.5 431.838 332.54 430.688C333.58 429.538 334.11 427.948 334.11 425.908V414.088C334.09 413.648 333.92 413.288 333.62 413.018C333.31 412.748 332.94 412.618 332.49 412.618H332.03V412.268H338.54V412.618H338.53Z" fill="#D3A63C"/>
<path d="M343.629 430.476C343.629 428.956 343.969 427.646 344.649 426.576H344.929C344.909 426.736 344.889 426.896 344.889 427.036C344.889 428.466 345.399 429.726 346.419 430.796C347.439 431.866 348.859 432.416 350.689 432.416C351.999 432.416 353.019 432.116 353.729 431.506C354.449 430.896 354.799 430.216 354.799 429.466C354.799 428.716 354.589 428.116 354.179 427.656C353.769 427.196 353.099 426.666 352.159 426.056L347.169 422.886C345.059 421.576 343.999 419.886 343.999 417.826C343.999 417.616 344.009 417.396 344.039 417.156C344.179 415.496 344.829 414.186 345.969 413.236C347.119 412.286 348.469 411.816 350.029 411.816C351.589 411.816 353.239 411.916 354.969 412.136H356.869L356.379 416.776H356.059C356.059 415.676 355.679 414.806 354.919 414.176C354.159 413.546 353.149 413.226 351.899 413.226C350.649 413.226 349.649 413.486 348.929 414.016C348.199 414.546 347.839 415.246 347.839 416.106C347.839 416.806 348.189 417.416 348.899 417.936C349.179 418.146 349.589 418.416 350.129 418.746L355.719 422.196C357.639 423.366 358.599 424.986 358.599 427.046C358.599 429.226 357.829 430.906 356.299 432.076C354.759 433.246 352.779 433.836 350.339 433.836C348.839 433.836 347.509 433.656 346.369 433.306C345.219 432.956 344.379 432.506 343.839 431.966C343.699 431.546 343.629 431.056 343.629 430.486V430.476Z" fill="#D3A63C"/>
<path d="M363.891 433.008H364.311C364.871 433.008 365.351 432.828 365.751 432.468C366.151 432.108 366.351 431.668 366.351 431.148V414.478C366.351 413.958 366.151 413.528 365.751 413.158C365.351 412.798 364.871 412.608 364.311 412.608H363.891V412.258H373.881V412.608H373.461C372.921 412.608 372.451 412.788 372.051 413.138C371.651 413.488 371.441 413.928 371.421 414.438V431.138C371.441 431.678 371.651 432.128 372.051 432.478C372.451 432.828 372.921 433.008 373.461 433.008H373.881V433.358H363.891V433.008Z" fill="#D3A63C"/>
<path d="M394.689 412.269H404.569V412.619H403.969C403.429 412.619 402.979 412.779 402.619 413.109C402.259 413.439 402.059 413.859 402.039 414.379V429.749C402.039 431.199 402.129 432.399 402.319 433.339L402.389 433.829H402.069L385.929 419.589V431.229C385.949 431.749 386.149 432.169 386.509 432.509C386.869 432.849 387.319 433.019 387.859 433.019H388.459V433.369H378.609V433.019H379.169C379.709 433.019 380.169 432.849 380.539 432.509C380.909 432.169 381.099 431.739 381.099 431.229V415.759C381.099 414.349 381.009 413.189 380.819 412.279L380.749 411.789L381.069 411.829L397.179 425.999V414.429C397.179 413.909 396.999 413.489 396.639 413.149C396.279 412.809 395.829 412.639 395.289 412.639H394.689V412.289V412.269Z" fill="#D3A63C"/>
<path d="M425.859 433.368H409.289V433.018H409.709C410.249 433.018 410.699 432.838 411.059 432.488C411.419 432.138 411.619 431.708 411.639 431.188V414.448C411.619 413.928 411.419 413.498 411.059 413.148C410.699 412.798 410.249 412.618 409.709 412.618H409.289V412.268H421.669C422.299 412.268 422.989 412.208 423.739 412.088C424.489 411.968 425.019 411.858 425.319 411.738V417.328H424.969V417.008C424.969 415.978 424.689 415.168 424.129 414.578C423.569 413.988 422.779 413.688 421.769 413.668H416.709V422.218H420.719C421.519 422.198 422.159 421.928 422.649 421.408C423.139 420.888 423.389 420.238 423.389 419.438V419.188H423.739V426.638H423.389V426.388C423.389 425.288 422.979 424.488 422.159 423.998C421.739 423.738 421.269 423.608 420.749 423.608H416.709V431.938H420.929C422.379 431.918 423.619 431.468 424.639 430.588C425.659 429.708 426.399 428.468 426.869 426.878H427.189L425.849 433.348L425.859 433.368Z" fill="#D3A63C"/>
<path d="M432.33 430.476C432.33 428.956 432.67 427.646 433.35 426.576H433.63C433.61 426.736 433.59 426.896 433.59 427.036C433.59 428.466 434.1 429.726 435.12 430.796C436.14 431.866 437.56 432.416 439.39 432.416C440.7 432.416 441.72 432.116 442.43 431.506C443.15 430.896 443.5 430.216 443.5 429.466C443.5 428.716 443.29 428.116 442.88 427.656C442.47 427.196 441.8 426.666 440.86 426.056L435.87 422.886C433.76 421.576 432.7 419.886 432.7 417.826C432.7 417.616 432.71 417.396 432.74 417.156C432.88 415.496 433.53 414.186 434.67 413.236C435.82 412.286 437.17 411.816 438.73 411.816C440.29 411.816 441.94 411.916 443.67 412.136H445.57L445.08 416.776H444.76C444.76 415.676 444.38 414.806 443.62 414.176C442.86 413.546 441.85 413.226 440.6 413.226C439.35 413.226 438.35 413.486 437.63 414.016C436.9 414.546 436.54 415.246 436.54 416.106C436.54 416.806 436.89 417.416 437.6 417.936C437.88 418.146 438.29 418.416 438.83 418.746L444.42 422.196C446.34 423.366 447.3 424.986 447.3 427.046C447.3 429.226 446.53 430.906 445 432.076C443.46 433.246 441.48 433.836 439.04 433.836C437.54 433.836 436.21 433.656 435.07 433.306C433.92 432.956 433.08 432.506 432.54 431.966C432.4 431.546 432.33 431.056 432.33 430.486V430.476Z" fill="#D3A63C"/>
<path d="M453.221 430.476C453.221 428.956 453.561 427.646 454.241 426.576H454.521C454.501 426.736 454.481 426.896 454.481 427.036C454.481 428.466 454.991 429.726 456.011 430.796C457.031 431.866 458.451 432.416 460.281 432.416C461.591 432.416 462.611 432.116 463.321 431.506C464.041 430.896 464.391 430.216 464.391 429.466C464.391 428.716 464.181 428.116 463.771 427.656C463.361 427.196 462.691 426.666 461.751 426.056L456.761 422.886C454.651 421.576 453.591 419.886 453.591 417.826C453.591 417.616 453.601 417.396 453.631 417.156C453.771 415.496 454.421 414.186 455.561 413.236C456.711 412.286 458.061 411.816 459.621 411.816C461.181 411.816 462.831 411.916 464.561 412.136H466.461L465.971 416.776H465.651C465.651 415.676 465.271 414.806 464.511 414.176C463.751 413.546 462.741 413.226 461.491 413.226C460.241 413.226 459.241 413.486 458.521 414.016C457.791 414.546 457.431 415.246 457.431 416.106C457.431 416.806 457.781 417.416 458.491 417.936C458.771 418.146 459.181 418.416 459.721 418.746L465.311 422.196C467.231 423.366 468.191 424.986 468.191 427.046C468.191 429.226 467.421 430.906 465.891 432.076C464.351 433.246 462.371 433.836 459.931 433.836C458.431 433.836 457.101 433.656 455.961 433.306C454.811 432.956 453.971 432.506 453.431 431.966C453.291 431.546 453.221 431.056 453.221 430.486V430.476Z" fill="#D3A63C"/>
<path d="M487.609 439.7V408.75H489.609V439.7H487.609Z" fill="#D3A63C"/>
<path d="M521.929 410.188V430.828C521.949 431.438 522.179 431.948 522.619 432.378C523.049 432.798 523.569 433.008 524.179 433.008H524.599L524.629 433.358H513.939V433.008H514.399C514.989 433.008 515.499 432.798 515.929 432.378C516.359 431.958 516.599 431.448 516.649 430.868V410.188H511.899C510.819 410.208 509.969 410.548 509.329 411.208C508.699 411.868 508.379 412.718 508.379 413.778V414.198H508.029V408.078C508.989 408.478 510.369 408.688 512.179 408.708H526.349C527.079 408.708 527.869 408.638 528.719 408.498C529.579 408.358 530.169 408.218 530.499 408.078V414.198H530.149V413.778C530.149 412.328 529.599 411.288 528.499 410.688C527.979 410.388 527.359 410.218 526.639 410.198H521.929V410.188Z" fill="#D3A63C"/>
<path d="M551.55 433.368H534.98V433.018H535.4C535.94 433.018 536.39 432.838 536.75 432.488C537.11 432.138 537.31 431.708 537.33 431.188V414.448C537.31 413.928 537.11 413.498 536.75 413.148C536.39 412.798 535.94 412.618 535.4 412.618H534.98V412.268H547.36C547.99 412.268 548.68 412.208 549.43 412.088C550.18 411.968 550.71 411.858 551.01 411.738V417.328H550.66V417.008C550.66 415.978 550.38 415.168 549.82 414.578C549.26 413.988 548.47 413.688 547.46 413.668H542.4V422.218H546.41C547.21 422.198 547.85 421.928 548.34 421.408C548.83 420.888 549.08 420.238 549.08 419.438V419.188H549.43V426.638H549.08V426.388C549.08 425.288 548.67 424.488 547.85 423.998C547.43 423.738 546.96 423.608 546.44 423.608H542.4V431.938H546.62C548.07 431.918 549.31 431.468 550.33 430.588C551.35 429.708 552.09 428.468 552.56 426.878H552.88L551.54 433.348L551.55 433.368Z" fill="#D3A63C"/>
<path d="M561.39 430.889C559.14 428.959 558.01 426.269 558.01 422.819C558.01 419.369 559.13 416.679 561.37 414.729C563.61 412.779 566.71 411.809 570.67 411.809C573.76 411.809 576.4 412.349 578.58 413.429V419.019H578.33C577.74 416.929 576.84 415.449 575.62 414.549C574.4 413.659 572.86 413.209 571.01 413.209C568.52 413.209 566.63 414.059 565.31 415.759C564 417.459 563.34 419.779 563.34 422.719C563.34 425.659 563.98 427.999 565.27 429.739C566.61 431.519 568.42 432.409 570.72 432.409C572.39 432.409 573.76 432.149 574.84 431.639C575.92 431.119 576.77 430.299 577.41 429.159C578.04 428.019 578.51 426.479 578.82 424.539H579.07L579.49 429.849C578.76 431.049 577.66 432.009 576.17 432.729C574.68 433.459 572.85 433.819 570.67 433.819C566.73 433.799 563.64 432.819 561.39 430.879V430.889Z" fill="#D3A63C"/>
<path d="M608.45 433.01H608.84V433.36H599.17V433.01H599.52C600.06 433.01 600.52 432.83 600.89 432.48C601.26 432.13 601.45 431.68 601.45 431.14V423.54H592.2V431.14C592.22 431.68 592.42 432.13 592.8 432.48C593.18 432.83 593.62 433.01 594.14 433.01H594.53V433.36H584.82V433.01H585.21C585.75 433.01 586.21 432.83 586.58 432.47C586.95 432.11 587.14 431.67 587.14 431.15V414.48C587.14 413.96 586.95 413.53 586.58 413.16C586.2 412.8 585.75 412.61 585.21 412.61H584.82V412.26H594.53V412.61H594.14C593.62 412.61 593.18 412.79 592.8 413.14C592.42 413.49 592.23 413.93 592.2 414.44V422.14H601.45V414.47C601.45 413.74 601.13 413.2 600.5 412.85C600.2 412.69 599.87 412.6 599.52 412.6H599.17V412.25H608.84V412.6H608.45C607.93 412.6 607.49 412.78 607.11 413.13C606.73 413.48 606.54 413.93 606.51 414.47V431.18C606.53 431.91 606.85 432.43 607.46 432.76C607.76 432.92 608.09 433.01 608.44 433.01H608.45Z" fill="#D3A63C"/>
<path d="M629.619 412.269H639.499V412.619H638.899C638.359 412.619 637.909 412.779 637.549 413.109C637.189 413.439 636.989 413.859 636.969 414.379V429.749C636.969 431.199 637.059 432.399 637.249 433.339L637.319 433.829H636.999L620.859 419.589V431.229C620.879 431.749 621.079 432.169 621.439 432.509C621.799 432.849 622.249 433.019 622.789 433.019H623.389V433.369H613.539V433.019H614.099C614.639 433.019 615.099 432.849 615.469 432.509C615.839 432.169 616.029 431.739 616.029 431.229V415.759C616.029 414.349 615.939 413.189 615.749 412.279L615.679 411.789L615.999 411.829L632.109 425.999V414.429C632.109 413.909 631.929 413.489 631.569 413.149C631.209 412.809 630.759 412.639 630.219 412.639H629.619V412.289V412.269Z" fill="#D3A63C"/>
<path d="M643.971 422.819C643.971 419.439 645.101 416.769 647.361 414.779C649.621 412.789 652.641 411.809 656.401 411.809C660.161 411.809 663.181 412.799 665.461 414.779C667.731 416.759 668.871 419.439 668.871 422.819C668.871 426.199 667.731 428.869 665.461 430.859C663.191 432.839 660.171 433.829 656.421 433.829C652.671 433.829 649.661 432.839 647.381 430.859C645.111 428.879 643.971 426.199 643.971 422.819ZM649.351 422.819C649.351 425.769 649.991 428.109 651.271 429.839C652.551 431.559 654.261 432.429 656.411 432.429C658.561 432.429 660.271 431.569 661.541 429.839C662.821 428.119 663.461 425.779 663.461 422.819C663.461 419.859 662.821 417.529 661.541 415.799C660.261 414.079 658.551 413.209 656.411 413.209C654.271 413.209 652.551 414.069 651.271 415.799C649.991 417.519 649.351 419.859 649.351 422.819Z" fill="#D3A63C"/>
<path d="M673.65 433.368V433.018H674.07C674.61 433.018 675.06 432.838 675.42 432.488C675.78 432.138 675.97 431.708 675.97 431.188V414.478C675.97 413.958 675.78 413.528 675.41 413.158C675.03 412.798 674.59 412.608 674.07 412.608H673.65V412.258H683.43V412.608H683.01C682.47 412.608 682.01 412.788 681.64 413.138C681.26 413.488 681.08 413.938 681.08 414.478V431.958H685.3C686.75 431.938 687.99 431.488 688.99 430.608C690 429.728 690.74 428.488 691.21 426.898H691.6L690.23 433.368H673.66H673.65Z" fill="#D3A63C"/>
<path d="M696.119 422.819C696.119 419.439 697.249 416.769 699.509 414.779C701.769 412.789 704.789 411.809 708.549 411.809C712.309 411.809 715.329 412.799 717.609 414.779C719.879 416.759 721.019 419.439 721.019 422.819C721.019 426.199 719.879 428.869 717.609 430.859C715.339 432.839 712.319 433.829 708.569 433.829C704.819 433.829 701.809 432.839 699.529 430.859C697.259 428.879 696.119 426.199 696.119 422.819ZM701.509 422.819C701.509 425.769 702.149 428.109 703.429 429.839C704.709 431.559 706.419 432.429 708.569 432.429C710.719 432.429 712.429 431.569 713.699 429.839C714.979 428.119 715.619 425.779 715.619 422.819C715.619 419.859 714.979 417.529 713.699 415.799C712.419 414.079 710.709 413.209 708.569 413.209C706.429 413.209 704.709 414.069 703.429 415.799C702.149 417.519 701.509 419.859 701.509 422.819Z" fill="#D3A63C"/>
<path d="M729.8 430.849C727.7 428.889 726.65 426.199 726.65 422.779C726.65 419.359 727.7 416.669 729.8 414.729C731.9 412.779 734.79 411.809 738.47 411.809C740.11 411.809 741.73 411.959 743.32 412.249C744.91 412.539 746.2 412.939 747.19 413.429V419.019H746.91C745.88 415.149 743.42 413.219 739.52 413.219C737.08 413.219 735.22 414.069 733.95 415.769C732.67 417.469 732.03 419.839 732.03 422.869C732.03 425.899 732.61 428.259 733.77 429.919C734.93 431.589 736.58 432.419 738.71 432.419C739.88 432.419 740.94 432.139 741.88 431.589C742.82 431.039 743.44 430.249 743.74 429.219L743.78 424.999C743.78 424.549 743.64 424.209 743.38 423.959C743.11 423.709 742.73 423.589 742.24 423.589H741.75V423.309H750.79V423.589H750.37C749.34 423.589 748.82 424.059 748.82 424.999V429.709C748 430.769 746.62 431.709 744.67 432.559C742.72 433.399 740.59 433.829 738.27 433.829C734.73 433.809 731.91 432.819 729.81 430.859L729.8 430.849Z" fill="#D3A63C"/>
<path d="M776.94 412.618H776.48C775.87 412.618 775.29 412.778 774.74 413.108C774.19 413.438 773.74 413.848 773.39 414.338L767.13 423.978V431.148C767.15 431.668 767.35 432.108 767.73 432.468C768.1 432.828 768.57 433.008 769.14 433.008H769.53V433.358H759.68V433.008H760.1C760.64 433.008 761.1 432.828 761.47 432.468C761.85 432.108 762.04 431.668 762.07 431.148V423.978L755.85 414.338C755.52 413.818 755.08 413.408 754.53 413.088C753.98 412.768 753.39 412.608 752.75 412.608H752.33V412.258H763.02V412.608H762.63C762.18 412.608 761.86 412.758 761.66 413.048C761.46 413.338 761.36 413.588 761.36 413.788C761.36 413.988 761.41 414.168 761.5 414.338L766.18 422.428L770.93 414.338C771 414.178 771.03 413.988 771.03 413.788C771.03 413.588 770.93 413.348 770.73 413.048C770.53 412.758 770.21 412.608 769.76 412.608H769.41V412.258H776.94V412.608V412.618Z" fill="#D3A63C"/>
</svg>
